<svg xmlns="http://www.w3.org/2000/svg" width="1280" height="720" viewBox="0 0 1280 720">
<style>
text{font-family:-apple-system,Segoe UI,Roboto,Inter,Arial;fill:#0f172a}
.sub{fill:#4b5563;font-size:12px}
.small{fill:#6b7280;font-size:11px}
</style>
<text x="60" y="30" font-size="22" font-weight="700">Heatmap de Retornos (placeholder)</text><rect x="60.0" y="60.0" width="116.0" height="60.0" fill="rgb(195,40,75)"/><rect x="176.0" y="60.0" width="116.0" height="60.0" fill="rgb(151,40,118)"/><rect x="292.0" y="60.0" width="116.0" height="60.0" fill="rgb(83,40,186)"/><rect x="408.0" y="60.0" width="116.0" height="60.0" fill="rgb(91,40,178)"/><rect x="524.0" y="60.0" width="116.0" height="60.0" fill="rgb(163,40,106)"/><rect x="640.0" y="60.0" width="116.0" height="60.0" fill="rgb(193,40,76)"/><rect x="756.0" y="60.0" width="116.0" height="60.0" fill="rgb(138,40,131)"/><rect x="872.0" y="60.0" width="116.0" height="60.0" fill="rgb(78,40,191)"/><rect x="988.0" y="60.0" width="116.0" height="60.0" fill="rgb(101,40,168)"/><rect x="1104.0" y="60.0" width="116.0" height="60.0" fill="rgb(173,40,96)"/><rect x="60.0" y="120.0" width="116.0" height="60.0" fill="rgb(254,40,15)"/><rect x="176.0" y="120.0" width="116.0" height="60.0" fill="rgb(210,40,59)"/><rect x="292.0" y="120.0" width="116.0" height="60.0" fill="rgb(143,40,126)"/><rect x="408.0" y="120.0" width="116.0" height="60.0" fill="rgb(150,40,119)"/><rect x="524.0" y="120.0" width="116.0" height="60.0" fill="rgb(222,40,47)"/><rect x="640.0" y="120.0" width="116.0" height="60.0" fill="rgb(253,40,16)"/><rect x="756.0" y="120.0" width="116.0" height="60.0" fill="rgb(197,40,72)"/><rect x="872.0" y="120.0" width="116.0" height="60.0" fill="rgb(137,40,132)"/><rect x="988.0" y="120.0" width="116.0" height="60.0" fill="rgb(160,40,109)"/><rect x="1104.0" y="120.0" width="116.0" height="60.0" fill="rgb(233,40,36)"/><rect x="60.0" y="180.0" width="116.0" height="60.0" fill="rgb(179,40,90)"/><rect x="176.0" y="180.0" width="116.0" height="60.0" fill="rgb(135,40,134)"/><rect x="292.0" y="180.0" width="116.0" height="60.0" fill="rgb(68,40,201)"/><rect x="408.0" y="180.0" width="116.0" height="60.0" fill="rgb(76,40,193)"/><rect x="524.0" y="180.0" width="116.0" height="60.0" fill="rgb(147,40,122)"/><rect x="640.0" y="180.0" width="116.0" height="60.0" fill="rgb(178,40,91)"/><rect x="756.0" y="180.0" width="116.0" height="60.0" fill="rgb(122,40,147)"/><rect x="872.0" y="180.0" width="116.0" height="60.0" fill="rgb(62,40,207)"/><rect x="988.0" y="180.0" width="116.0" height="60.0" fill="rgb(86,40,183)"/><rect x="1104.0" y="180.0" width="116.0" height="60.0" fill="rgb(158,40,111)"/><rect x="60.0" y="240.0" width="116.0" height="60.0" fill="rgb(139,40,130)"/><rect x="176.0" y="240.0" width="116.0" height="60.0" fill="rgb(95,40,174)"/><rect x="292.0" y="240.0" width="116.0" height="60.0" fill="rgb(28,40,241)"/><rect x="408.0" y="240.0" width="116.0" height="60.0" fill="rgb(35,40,234)"/><rect x="524.0" y="240.0" width="116.0" height="60.0" fill="rgb(107,40,162)"/><rect x="640.0" y="240.0" width="116.0" height="60.0" fill="rgb(138,40,131)"/><rect x="756.0" y="240.0" width="116.0" height="60.0" fill="rgb(82,40,187)"/><rect x="872.0" y="240.0" width="116.0" height="60.0" fill="rgb(22,40,247)"/><rect x="988.0" y="240.0" width="116.0" height="60.0" fill="rgb(45,40,224)"/><rect x="1104.0" y="240.0" width="116.0" height="60.0" fill="rgb(118,40,151)"/><rect x="60.0" y="300.0" width="116.0" height="60.0" fill="rgb(224,40,45)"/><rect x="176.0" y="300.0" width="116.0" height="60.0" fill="rgb(180,40,89)"/><rect x="292.0" y="300.0" width="116.0" height="60.0" fill="rgb(113,40,156)"/><rect x="408.0" y="300.0" width="116.0" height="60.0" fill="rgb(121,40,148)"/><rect x="524.0" y="300.0" width="116.0" height="60.0" fill="rgb(192,40,77)"/><rect x="640.0" y="300.0" width="116.0" height="60.0" fill="rgb(223,40,46)"/><rect x="756.0" y="300.0" width="116.0" height="60.0" fill="rgb(167,40,102)"/><rect x="872.0" y="300.0" width="116.0" height="60.0" fill="rgb(107,40,162)"/><rect x="988.0" y="300.0" width="116.0" height="60.0" fill="rgb(130,40,139)"/><rect x="1104.0" y="300.0" width="116.0" height="60.0" fill="rgb(203,40,66)"/><rect x="60.0" y="360.0" width="116.0" height="60.0" fill="rgb(242,40,27)"/><rect x="176.0" y="360.0" width="116.0" height="60.0" fill="rgb(198,40,71)"/><rect x="292.0" y="360.0" width="116.0" height="60.0" fill="rgb(131,40,138)"/><rect x="408.0" y="360.0" width="116.0" height="60.0" fill="rgb(139,40,130)"/><rect x="524.0" y="360.0" width="116.0" height="60.0" fill="rgb(211,40,58)"/><rect x="640.0" y="360.0" width="116.0" height="60.0" fill="rgb(241,40,28)"/><rect x="756.0" y="360.0" width="116.0" height="60.0" fill="rgb(186,40,83)"/><rect x="872.0" y="360.0" width="116.0" height="60.0" fill="rgb(126,40,143)"/><rect x="988.0" y="360.0" width="116.0" height="60.0" fill="rgb(149,40,120)"/><rect x="1104.0" y="360.0" width="116.0" height="60.0" fill="rgb(221,40,48)"/><rect x="60.0" y="420.0" width="116.0" height="60.0" fill="rgb(153,40,116)"/><rect x="176.0" y="420.0" width="116.0" height="60.0" fill="rgb(109,40,160)"/><rect x="292.0" y="420.0" width="116.0" height="60.0" fill="rgb(41,40,228)"/><rect x="408.0" y="420.0" width="116.0" height="60.0" fill="rgb(49,40,220)"/><rect x="524.0" y="420.0" width="116.0" height="60.0" fill="rgb(121,40,148)"/><rect x="640.0" y="420.0" width="116.0" height="60.0" fill="rgb(151,40,118)"/><rect x="756.0" y="420.0" width="116.0" height="60.0" fill="rgb(96,40,173)"/><rect x="872.0" y="420.0" width="116.0" height="60.0" fill="rgb(36,40,233)"/><rect x="988.0" y="420.0" width="116.0" height="60.0" fill="rgb(59,40,210)"/><rect x="1104.0" y="420.0" width="116.0" height="60.0" fill="rgb(131,40,138)"/><rect x="60.0" y="480.0" width="116.0" height="60.0" fill="rgb(157,40,112)"/><rect x="176.0" y="480.0" width="116.0" height="60.0" fill="rgb(113,40,156)"/><rect x="292.0" y="480.0" width="116.0" height="60.0" fill="rgb(46,40,223)"/><rect x="408.0" y="480.0" width="116.0" height="60.0" fill="rgb(54,40,215)"/><rect x="524.0" y="480.0" width="116.0" height="60.0" fill="rgb(126,40,143)"/><rect x="640.0" y="480.0" width="116.0" height="60.0" fill="rgb(156,40,113)"/><rect x="756.0" y="480.0" width="116.0" height="60.0" fill="rgb(101,40,168)"/><rect x="872.0" y="480.0" width="116.0" height="60.0" fill="rgb(41,40,228)"/><rect x="988.0" y="480.0" width="116.0" height="60.0" fill="rgb(64,40,205)"/><rect x="1104.0" y="480.0" width="116.0" height="60.0" fill="rgb(136,40,133)"/><rect x="60.0" y="540.0" width="116.0" height="60.0" fill="rgb(246,40,23)"/><rect x="176.0" y="540.0" width="116.0" height="60.0" fill="rgb(202,40,67)"/><rect x="292.0" y="540.0" width="116.0" height="60.0" fill="rgb(135,40,134)"/><rect x="408.0" y="540.0" width="116.0" height="60.0" fill="rgb(142,40,127)"/><rect x="524.0" y="540.0" width="116.0" height="60.0" fill="rgb(214,40,55)"/><rect x="640.0" y="540.0" width="116.0" height="60.0" fill="rgb(245,40,24)"/><rect x="756.0" y="540.0" width="116.0" height="60.0" fill="rgb(189,40,80)"/><rect x="872.0" y="540.0" width="116.0" height="60.0" fill="rgb(129,40,140)"/><rect x="988.0" y="540.0" width="116.0" height="60.0" fill="rgb(152,40,117)"/><rect x="1104.0" y="540.0" width="116.0" height="60.0" fill="rgb(225,40,44)"/><rect x="60.0" y="600.0" width="116.0" height="60.0" fill="rgb(218,40,51)"/><rect x="176.0" y="600.0" width="116.0" height="60.0" fill="rgb(174,40,95)"/><rect x="292.0" y="600.0" width="116.0" height="60.0" fill="rgb(107,40,162)"/><rect x="408.0" y="600.0" width="116.0" height="60.0" fill="rgb(115,40,154)"/><rect x="524.0" y="600.0" width="116.0" height="60.0" fill="rgb(186,40,83)"/><rect x="640.0" y="600.0" width="116.0" height="60.0" fill="rgb(217,40,52)"/><rect x="756.0" y="600.0" width="116.0" height="60.0" fill="rgb(162,40,107)"/><rect x="872.0" y="600.0" width="116.0" height="60.0" fill="rgb(101,40,168)"/><rect x="988.0" y="600.0" width="116.0" height="60.0" fill="rgb(125,40,144)"/><rect x="1104.0" y="600.0" width="116.0" height="60.0" fill="rgb(197,40,72)"/><text class="small" x="60" y="708">Gerado em 2025-11-05 — troque por figura real quando disponível</text>
</svg>