<svg xmlns="http://www.w3.org/2000/svg" width="1280" height="720" viewBox="0 0 1280 720">
<style>
text{font-family:-apple-system,Segoe UI,Roboto,Inter,Arial;fill:#0f172a}
.sub{fill:#4b5563;font-size:12px}
.small{fill:#6b7280;font-size:11px}
</style>
<text x="40" y="30" font-size="22" font-weight="700">Pipeline (07→11) — placeholder</text><rect x="40" y="327.0" rx="12" ry="12" width="220" height="66" fill="#0ea5e9" opacity="0.12" stroke="#0ea5e9"/><text x="52" y="355.0" font-size="16" font-weight="700">07  Métricas & Risco</text><text class="sub" x="52" y="375.0">vol • VaR • CVaR</text><line x1="260" y1="360.0" x2="284" y2="360.0" stroke="#0ea5e9" stroke-width="2"/><polygon points="284,354.0 284,366.0 296,360.0" fill="#0ea5e9"/><rect x="300" y="327.0" rx="12" ry="12" width="220" height="66" fill="#0ea5e9" opacity="0.12" stroke="#0ea5e9"/><text x="312" y="355.0" font-size="16" font-weight="700">08  Estratégias</text><text class="sub" x="312" y="375.0">IDX_TARGET • LS_DN • LS_RN</text><line x1="520" y1="360.0" x2="544" y2="360.0" stroke="#0ea5e9" stroke-width="2"/><polygon points="544,354.0 544,366.0 556,360.0" fill="#0ea5e9"/><rect x="560" y="327.0" rx="12" ry="12" width="220" height="66" fill="#0ea5e9" opacity="0.12" stroke="#0ea5e9"/><text x="572" y="355.0" font-size="16" font-weight="700">09  Taxas</text><text class="sub" x="572" y="375.0">adm • perf • IOF/IR</text><line x1="780" y1="360.0" x2="804" y2="360.0" stroke="#0ea5e9" stroke-width="2"/><polygon points="804,354.0 804,366.0 816,360.0" fill="#0ea5e9"/><rect x="820" y="327.0" rx="12" ry="12" width="220" height="66" fill="#0ea5e9" opacity="0.12" stroke="#0ea5e9"/><text x="832" y="355.0" font-size="16" font-weight="700">10  Gráficos</text><text class="sub" x="832" y="375.0">heatmap • split</text><line x1="1040" y1="360.0" x2="1064" y2="360.0" stroke="#0ea5e9" stroke-width="2"/><polygon points="1064,354.0 1064,366.0 1076,360.0" fill="#0ea5e9"/><rect x="1080" y="327.0" rx="12" ry="12" width="220" height="66" fill="#0ea5e9" opacity="0.12" stroke="#0ea5e9"/><text x="1092" y="355.0" font-size="16" font-weight="700">11  Produção</text><text class="sub" x="1092" y="375.0">cron • GH Actions</text><text class="small" x="40" y="708">Trocar por diagrama real quando oportuno</text>
</svg>