<svg xmlns="http://www.w3.org/2000/svg" width="1280" height="720" viewBox="0 0 1280 720">
<style>
text{font-family:-apple-system,Segoe UI,Roboto,Inter,Arial;fill:#0f172a}
.sub{fill:#4b5563;font-size:12px}
.small{fill:#6b7280;font-size:11px}
</style>
<text x="60" y="30" font-size="22" font-weight="700">Split por buckets (placeholder)</text><rect x="60.0" y="300.0" width="81.2" height="60.0" fill="#16a34a"/><rect x="176.0" y="174.6" width="81.2" height="185.4" fill="#16a34a"/><rect x="292.0" y="131.8" width="81.2" height="228.2" fill="#16a34a"/><rect x="408.0" y="111.4" width="81.2" height="248.6" fill="#16a34a"/><rect x="524.0" y="129.3" width="81.2" height="230.7" fill="#16a34a"/><rect x="640.0" y="259.1" width="81.2" height="100.9" fill="#16a34a"/><rect x="756.0" y="360.0" width="81.2" height="129.5" transform="scale(1,-1) translate(0,-720.0)" fill="#dc2626"/><rect x="872.0" y="360.0" width="81.2" height="318.3" transform="scale(1,-1) translate(0,-720.0)" fill="#dc2626"/><rect x="988.0" y="360.0" width="81.2" height="332.5" transform="scale(1,-1) translate(0,-720.0)" fill="#dc2626"/><rect x="1104.0" y="360.0" width="81.2" height="193.0" transform="scale(1,-1) translate(0,-720.0)" fill="#dc2626"/><line x1="50" y1="360.0" x2="1230" y2="360.0" stroke="#9ca3af" stroke-width="1"/><text class="sub" x="960" y="708">Verde=Long  •  Vermelho=Short (exemplo)</text>
</svg>